<?xml version="1.0" encoding="utf-8"?>
<!-- Generator: Adobe Illustrator 19.0.0, SVG Export Plug-In . SVG Version: 6.00 Build 0)  -->
<svg version="1.1" id="Layer_1" xmlns="http://www.w3.org/2000/svg" xmlns:xlink="http://www.w3.org/1999/xlink" x="0px" y="0px"
	 viewBox="0 0 1920 2129" style="enable-background:new 0 0 1920 2129;" xml:space="preserve">
<style type="text/css">
	.st0{fill:url(#XMLID_510_);}
	.st1{fill:#547DBF;}
	.img-float {
    -webkit-transform: translatey(0px);
    transform: translatey(0px);
    -webkit-animation: float 6s ease-in-out infinite;
    animation: float 5.4s ease-in-out infinite;
}
    .img-float-2 {
     -webkit-animation: float 4s ease-in-out infinite;
    animation: float 4.5s ease-in-out infinite;
    }

    .img-float-3 {
     -webkit-animation: float 4s ease-in-out infinite;
    animation: float 4.9s ease-in-out infinite;
    }

@keyframes float {
    0% {
        -webkit-transform: translatey(0px);
        transform: translatey(0px);
    }
    50% {
        -webkit-transform: translatey(-20px);
        transform: translatey(-20px);
    }
    100% {
        -webkit-transform: translatey(0px);
        transform: translatey(0px);
    }
}
@-webkit-keyframes float {
    0% {
        -webkit-transform: translatey(0px);
        transform: translatey(0px);
    }
    50% {
        -webkit-transform: translatey(-20px);
        transform: translatey(-20px);
    }
    100% {
        -webkit-transform: translatey(0px);
        transform: translatey(0px);
    }
}
}

</style>
<linearGradient id="XMLID_510_" gradientUnits="userSpaceOnUse" x1="2134.1306" y1="710.7792" x2="-214.1307" y2="1418.2207">
	<stop  offset="8.271665e-007" style="stop-color:#FDBA33;stop-opacity:0.8"/>
	<stop  offset="0.4678" style="stop-color:#F9A127;stop-opacity:0.8936"/>
	<stop  offset="1" style="stop-color:#F6881F"/>
</linearGradient>
<rect id="XMLID_502_" class="st0" width="1920" height="2129"/>
<g id="Dots">
	<ellipse id="XMLID_183_" class="st1 img-float" cx="1400.9" cy="275.8" rx="78" ry="72"/>
	<circle id="XMLID_184_" class="st1 img-float img-float-3" cx="1526.9" cy="203.8" r="45"/>
	<circle id="XMLID_185_" class="st1 img-float img-float-2" cx="1526.9" cy="314.8" r="39"/>
</g>
<g id="XMLID_349_">
	<path id="XMLID_491_" class="st1" d="M357.8,1862.7c-18.6-11.9-45.3-3.5-59.6,18.8c-14.3,22.3-10.9,50.1,7.7,62
		c18.6,11.9,45.3,3.5,59.6-18.8C379.9,1902.4,376.4,1874.7,357.8,1862.7z"/>
	<path id="XMLID_496_" class="st1" d="M186.8,1877.4l-12.9,20.1c6.5,8.5,14.1,16.1,23.1,22.9
		C205.6,1905.6,201.3,1886.6,186.8,1877.4z"/>
	<path id="XMLID_497_" class="st1" d="M392.3,2010.5c7.4,5.7,14.4,11.6,20.6,18.2l15.6-24.3C416.3,1998.6,401.8,2001.1,392.3,2010.5
		z"/>
	<path id="XMLID_498_" class="st1" d="M250.9,1777.6l-16.3,25.4c13,8.4,29.9,6,40.3-4.7C266.1,1791.9,258,1785.1,250.9,1777.6z"/>
	<path id="XMLID_499_" class="st1" d="M469.8,1888.4c-8.2,13.7-5.1,31,6.9,41l13.2-20.6C484.2,1901.3,477.5,1894.6,469.8,1888.4z"/>
</g>
<path id="XMLID_508_" class="st1" d="M831.9,1994.2c-7-56.3-46.6-99.4-94.5-99.4c-11.9,0-23.2,2.6-33.7,7.5
	c-5-33.3-24.5-62.5-52.9-82.3c-12-65.3-74.6-115-149.9-115c-12.8,0-25.3,1.4-37.2,4.2c-23.3-53.6-68.3-92.6-121.8-102
	c-25.7-86.3-119.4-150.2-231-150.2c-40.1,0-77.9,8.2-111,22.8V2129h913c4.3-11.1,6.6-23.2,6.6-35.8
	C919.6,2042.2,881.3,2000.2,831.9,1994.2z M513,1917.2l-85.7,133.5c-5,7.8-14.9,9.3-22.2,4.7c-1.4-0.9-2.8-2.1-3.9-3.5
	c-10.3-12.5-22.3-22.5-35.3-30.8c-51.8-33.3-120.5-40.3-172.3-73.6c-16.3-10.5-31-23.6-42.9-40.9c-3.6-5.2-3.4-12.2,0-17.5
	l85.7-133.5c5-7.8,14.9-9.3,22.2-4.7c1.4,0.9,2.8,2.1,3.9,3.5c10.3,12.5,22.3,22.5,35.3,30.8c51.8,33.3,120.5,40.3,172.3,73.6
	c16.3,10.5,31,23.6,42.9,40.9C516.6,1904.9,516.4,1911.9,513,1917.2z"/>
</svg>
