<?xml version="1.0" encoding="utf-8"?>
<!-- Generator: Adobe Illustrator 19.0.0, SVG Export Plug-In . SVG Version: 6.00 Build 0)  -->
<svg version="1.1" id="Layer_1" xmlns="http://www.w3.org/2000/svg" xmlns:xlink="http://www.w3.org/1999/xlink" x="0px" y="0px"
	 viewBox="0 0 1920 1139.8" style="enable-background:new 0 0 1920 1139.8;" xml:space="preserve">
<style type="text/css">
	.st0{fill:url(#XMLID_69_);}
	.st1{fill:#537DBE;}
</style>
<linearGradient id="XMLID_69_" gradientUnits="userSpaceOnUse" x1="769.6237" y1="1065.5618" x2="1210.8928" y2="-83.2929">
	<stop  offset="8.271665e-007" style="stop-color:#FCB933;stop-opacity:0.8"/>
	<stop  offset="0.2792" style="stop-color:#FAAA2D;stop-opacity:0.8558"/>
	<stop  offset="1" style="stop-color:#F5871F"/>
</linearGradient>
<rect id="XMLID_266_" class="st0" width="1920" height="1139.8"/>
<path id="XMLID_7_" class="st1" d="M1920,777.6v360.1c-1.7,0.7-3.4,1.5-5.1,2.2h-710.2c-5.8-6.8-9-14.1-9-21.7
	c0-31.3,54-57.9,129.4-67.9c-3.3-8.7-5-17.6-5-26.7c0-64.1,84.3-119.3,205.8-144.4c15.8-42.8,85.8-75,169.8-75
	c15.9,0,31.3,1.2,45.8,3.3C1793,790.7,1854,780,1920,777.6z"/>
<path id="XMLID_3_" class="st1" d="M0,0v1166.8h1.9C41.1,565.5,685.6,77.6,1508.9,8.4V0H0z"/>
</svg>
